<?xml version="1.0" standalone="no"?>
<!DOCTYPE svg PUBLIC "-//W3C//DTD SVG 20010904//EN"
 "http://www.w3.org/TR/2001/REC-SVG-20010904/DTD/svg10.dtd">
<svg version="1.0" xmlns="http://www.w3.org/2000/svg"
 width="512.000000pt" height="512.000000pt" viewBox="0 0 512.000000 512.000000"
 preserveAspectRatio="xMidYMid meet">

<g transform="translate(0.000000,512.000000) scale(0.100000,-0.100000)"
fill="#000000" stroke="none">
<path d="M2340 4789 c-559 -57 -1098 -338 -1467 -764 -313 -362 -502 -807
-545 -1286 -14 -161 -7 -201 47 -248 61 -53 149 -54 210 0 42 37 52 68 60 194
66 999 916 1795 1917 1795 491 0 985 -203 1334 -547 l89 -88 -342 -5 c-325 -5
-343 -6 -369 -26 -53 -39 -69 -71 -69 -134 0 -63 16 -95 69 -134 27 -21 38
-21 566 -21 528 0 539 0 566 21 15 11 37 33 48 48 21 27 21 38 21 566 0 528 0
539 -21 566 -39 53 -71 69 -134 69 -63 0 -95 -16 -134 -69 -20 -26 -21 -43
-24 -312 l-3 -285 -87 78 c-179 161 -335 267 -545 369 -362 176 -791 253
-1187 213z"/>
<path d="M4587 2666 c-20 -8 -44 -20 -53 -27 -28 -23 -54 -87 -54 -134 0 -81
-20 -237 -46 -354 -155 -696 -667 -1238 -1359 -1436 -290 -83 -671 -91 -960
-19 -343 85 -656 259 -900 500 l-80 79 342 5 c325 5 343 6 369 26 53 39 69 71
69 134 0 63 -16 95 -69 134 -27 21 -38 21 -566 21 -528 0 -539 0 -566 -21 -15
-11 -37 -33 -48 -48 -21 -27 -21 -38 -21 -566 0 -528 0 -539 21 -566 39 -53
71 -69 134 -69 63 0 95 16 134 69 20 26 21 43 24 312 l3 285 87 -78 c247 -222
512 -377 810 -477 559 -185 1147 -145 1677 114 719 351 1191 1043 1257 1842
11 137 11 149 -7 188 -34 75 -123 113 -198 86z"/>
</g>
</svg>
