<?xml version="1.0" standalone="no"?>
<!DOCTYPE svg PUBLIC "-//W3C//DTD SVG 20010904//EN"
 "http://www.w3.org/TR/2001/REC-SVG-20010904/DTD/svg10.dtd">
<svg version="1.0" xmlns="http://www.w3.org/2000/svg"
 width="512.000000pt" height="512.000000pt" viewBox="0 0 512.000000 512.000000"
 preserveAspectRatio="xMidYMid meet">

<g transform="translate(0.000000,512.000000) scale(0.100000,-0.100000)"
fill="#000000" stroke="none">
<path d="M995 5106 c-186 -46 -305 -204 -305 -403 l0 -73 -60 0 c-86 0 -155
-17 -245 -60 -132 -64 -239 -186 -288 -329 l-22 -66 -3 -1557 c-2 -1319 0
-1568 12 -1626 41 -197 186 -357 386 -425 65 -22 67 -22 984 -25 l920 -3 105
-102 c238 -230 501 -362 831 -418 110 -19 375 -16 489 5 176 32 363 103 516
194 274 163 521 456 630 747 74 197 99 342 99 565 -1 183 -19 297 -75 464 -90
271 -293 554 -517 721 l-80 60 -4 695 c-4 683 -4 696 -25 760 -79 233 -271
383 -510 397 l-93 6 0 51 c0 71 -24 174 -51 221 -38 67 -117 141 -183 172 -55
25 -72 28 -166 28 -93 0 -111 -3 -163 -27 -74 -35 -160 -121 -193 -193 -17
-37 -29 -88 -36 -155 l-11 -100 -722 0 -722 0 -5 94 c-4 78 -10 105 -36 160
-82 175 -272 268 -457 222z m184 -237 c20 -11 48 -36 61 -56 25 -36 25 -39 28
-280 l3 -243 -181 0 -180 0 0 232 c0 214 2 235 21 275 41 85 162 121 248 72z
m2239 7 c37 -19 68 -55 87 -98 12 -30 15 -82 15 -263 l0 -225 -175 0 -175 0 0
244 c0 236 1 244 23 277 36 54 82 79 144 79 30 0 66 -6 81 -14z m-2728 -601
l0 -135 29 -32 29 -33 341 0 341 0 27 28 c28 27 28 30 31 167 l4 140 723 0
723 0 4 -132 c2 -79 9 -142 16 -155 28 -50 47 -53 391 -53 l321 0 32 29 33 29
3 142 4 143 72 -5 c139 -9 259 -94 307 -216 20 -51 23 -81 27 -264 l4 -208
-1931 0 -1931 0 0 188 c0 257 19 325 118 414 69 62 129 85 230 87 l52 1 0
-135z m3458 -1077 c1 -164 0 -298 -2 -298 -2 0 -40 13 -83 30 -170 64 -335 92
-532 91 -307 0 -567 -78 -821 -246 -368 -243 -607 -622 -671 -1063 -17 -121
-6 -402 20 -517 27 -121 71 -248 120 -346 23 -45 41 -83 41 -86 0 -2 -372 -2
-827 -1 l-828 3 -58 23 c-73 30 -149 104 -185 179 l-27 58 -3 1238 -2 1237
1927 -2 1928 -3 3 -297z m-418 -409 c346 -48 679 -259 875 -553 103 -155 178
-344 207 -520 15 -91 15 -311 0 -402 -76 -466 -403 -857 -850 -1018 -265 -95
-597 -93 -864 5 -311 114 -569 343 -717 638 -187 370 -175 848 31 1207 271
472 776 719 1318 643z"/>
<path d="M3430 2276 c-18 -6 -43 -24 -54 -39 -20 -28 -21 -40 -24 -432 -3
-442 -1 -455 54 -492 26 -16 55 -18 355 -18 317 0 328 1 356 21 31 23 52 74
45 111 -2 13 -18 37 -34 53 l-29 30 -262 2 -262 3 -3 352 -2 352 -30 29 c-34
35 -66 43 -110 28z"/>
</g>
</svg>
